<svg xmlns="http://www.w3.org/2000/svg" width="482" height="130.281" viewBox="0 0 482 130.281">
  <defs>
    <style>
      .cls-1 {
        fill: #263238;
        fill-rule: evenodd;
      }
    </style>
  </defs>
  <path id="MalehvorLogo-Simplified" class="cls-1" d="M58.7,19.174H78.1v1.994c-2.629.719-4.812,1.709-5.969,3.988l-0.995,7.478a15.1,15.1,0,0,1,7.959-.5c0.14,4.386-.476,5.011-2.487,6.979a8.478,8.478,0,0,1-5.472-1.5v1l0.5,6.481c1.841,2.43,5.323,4.154,6.466,6.979-6.933-.084-11.718.353-18.4,0.5l1.99,2.991c-1.9,1.655-4.912,1.992-6.467-.5l-0.5-2.493c-5.4-.322-12.884.563-17.41-0.5V50.082c2.628-.719,4.812-1.71,5.969-3.988l0.995-8.974H41.286l-0.5,2.493-4.477-1.5c-0.156-2.994-.263-4.327,1.492-5.484,3.069-.855,4.669,1.432,6.964-1-1.9-6.792-5.413-7.638-7.461-12.463,6.692,0.117,12.017-.164,18.4-0.5,0.108-7.4-1.689-11.129-2.487-15.953l1.492-1.994,2.985,0.5,1.99,1C60.91,7.825,58.695,11.056,58.7,19.174Zm-2.487,13.46V22.165l-7.959,1.5-1.492,9.472ZM58.7,22.165l0.5,10.469,9.451-.5q-0.249-2.991-.5-5.982l-2.985-3.49Zm0.5,26.422,7.959-1,1.492-10.469-0.995-1c-3.314-.127-6.49.038-8.456,1V48.587ZM50.737,36.622l-3.979,1,0.5,7.478c2.878,2.237,4.717,4.939,8.954,4.487q-0.249-6.48-.5-12.962H50.737ZM36.81,129.349l-20.892-1.5c-3.031.774-8.847,3.482-12.933,1.994l-1.99-1a6.443,6.443,0,0,1,1.492-4.487l10.943-5.484c3.337-13.346,7-57.19.995-65.805-5.713.262-10,.659-13.928-1.5L0,47.59l1.492-1c3.086-1.4,9.256-1.1,12.933-.5H27.358c5.071,1.412,18.231,34.7,21.389,41.378,2.279,4.815,4.366,17.414,10.446,16.452,0.638-4.018,3.115-4.868,4.477-7.977l7.959-23.431c1.527-3.686,5.775-7.734,6.964-10.968,1.782-4.844,1.17-10.256,3.482-14.956,5.851-2.174,21.065-3.548,27.359,0v1.994c-3.975,3.6-12.06,3.744-15.42,7.977L97,65.537,96,78c-0.026,13.6.49,32.628,5.969,41.877,5.539,0.968,14.01,2.526,9.949,8.973h-37.8l-2.487-2.493v-1.5l0.995-1c5.015,0.114,8.995-.7,11.938-2.493,1.418-7.313.509-52.973-2.487-57.829-0.9-1.018-.007-0.352-1.492-1C77.622,75.982,69.872,87.474,64.168,98.44,59.714,107,59.352,117.9,55.214,126.357c-7.185-1.788-6-8.317-8.456-14.955-2.016-5.451-21.621-43.445-24.871-44.868C20.533,95.1,16.713,114.973,36.81,125.859v3.49ZM215.883,72.018c10.035,0.493,21.151,2.895,31.338,0l2.985,1.994c1.078,3.436,2.215,8.4.5,11.965-7.965-.942-14.033-10.853-22.882-4.985-1.254,4.054-2.826,10.982-1.492,15.953,7.962,1.911,19.8.742,32.021,1.062,17.8,0.466,36.425,1.657,45.08-.065,4.621-16.07-2.738-13.927-8.456-20.938v-1.5l2.984-2.493c16.2,0.429,28.947-1.95,43.277,1q0.247,0.5.5,1c-1.017,2.7-3.114,4.148-4.974,5.982l8.953,29.413h3.98c4.234-8.779,10.116-19.425,10.446-30.908L354.665,77a7.5,7.5,0,0,1,1-3.988l19.4,0.5q0.248,0.5.5,1c-1.716,4.568-6.793,4.558-8.954,8.475-5,9.066-14.678,49.363-24.374,46.862q-8.952-25.173-17.907-50.351c-5.106-1.3-6.31.95-10.446,2.991-0.152,12.24-4.091,31.438.5,40.381l6.466,2.991v1.994c-6.69.82-16.507,2.467-24.374,1-1.579-4.57,3.521-5.663,6.467-8.475-0.915-4.58,2.155-13.317-.5-15.454-4.754-1.976-71.088-2.536-76.6,0-0.743,5.083.318,11.741,2.487,15.454-2.358,0-4.716,1.086-7.074,1.086h-5.859c-0.166-11.8-.332-24.684-0.5-36.481-0.816-3.441-4.887-4.735-5.969-8.475C210.7,73.626,212.967,73.7,215.883,72.018Zm177.581,0c42.01-1.089,41.2,49.039,9.949,57.829-19.9,5.6-41.808-17.549-35.815-35.894C371.916,80.736,381.555,78,393.464,72.018Zm-247.221,1c5.341,2.935,15.024,40.4,19.9,48.357l4.477,1.994,2.487-1.5c2.294-8.752,4.243-27.362,1.99-35.4-1.089-3.885-4.921-8.622-3.979-11.466,6.674-.043,18.873-1.321,23.876,1v1.5c-2.237,1.316-6.5,2.325-7.959,4.487-4.225,6.243-1.374,35.672,1.493,40.88,10.222,1.867,24.8,3.125,33.825,1.085,5.968-.166,11.938-1.418,17.907-1.584,5.909-1.653,10.867-10.341,16.913-7.976-0.087,6.106-3.255,10.738-5.97,14.457-22.334,1.484-42.56.1-64.168-1-12.246-.62-27.527,2.849-38.8.5q-0.249-1.246-.5-2.493l6.466-3.49q-0.995-5.731-1.989-11.466l-4.477-2.493c-6.4.761-10.2,1.281-14.426,4.487-1.937,13.285.461,6.935,5.969,13.46l-1.492,2.493c-4.621.429-13.229,2.365-17.907,0.5l-2.487-1.995v-1.5C131.4,116.525,134.725,97.825,138.285,78ZM276.569,95.947l-10.446.5v-0.5c0.7-3.439.253-10.206-.5-13.46L256.175,79q0.247-1.994.5-3.988l0.995-1.5c10.744-.224,20.36-1.809,27.358,2.493V78.5c-2.163,2.281-5.842,3.032-7.461,4.487Q277.066,89.466,276.569,95.947Zm154.7-22.932c15.032,0.038,36.519-1.434,37.307,14.457-2.958,4.909-11.915,10.384-12.436,12.463,2.114,4.814,12.666,18.7,16.913,21.437,3.131,2.019,6.6,1.278,8.953,3.988l-2.487,3.989c-6.331.149-14.281-1.009-18.405-3.49-2.712-7.818-8.4-21.122-17.41-22.434-0.427,7-1.251,12.977.5,18.944,3.345,0.208,4.211.544,4.477,3.988l-0.995,1-19.9,1.5a7.047,7.047,0,0,1-4.477-2.493c2.05-3.285,5.326-2.869,8.954-4.486,1.143-5.827,2.845-37.162,0-41.378-1.738-2.575-6.251-2.388-8.457-4.487l0.5-1.994ZM446.192,77.5c-5.668,3.382-4.514,13.559-2.985,19.941l3.979,1.994c4-.567,6.691-3.043,9.452-4.985,0.316-8.555-.911-13.169-6.467-16.95h-3.979Zm-54.22,1c-15.391,10.69-10.869,11.2-10.943,29.413,2.4,0.312,5.09-.349,6.964,1h1a35.185,35.185,0,0,0,0,14.457c4.543,2.025,8.092,2.237,14.922,1.994a48.476,48.476,0,0,0,0-15.953l0.995-.5c3.205,2.195,4.035,2.885,6.467-.5l3.482-2.991C414.613,89.234,409.085,78.33,391.972,78.5ZM143.259,89.965l-2.985,1.5c-1.335,3.968-3.025,7.626-1.989,12.962l11.44,1v-1.495C148.212,98.421,148.744,91.644,143.259,89.965Zm242.247,1.994c2.814,1.512,6.192,1.1,8.456,3.988-2.275,5.627-4.746,8.825-10.446,4.487q-0.747-2.243-1.492-4.487Zm14.922,1,7.462,1.5q0.249,0.748.5,1.5c0.919,2.183.682,3.847-1,4.985-1.587,1.276-2.675,1.779-5.471,2l-2.985-2.992c0.346-4.162.833-3.251-1-5.982Zm-6.466,8.475c3.565,0.892,5.236,4.435,3.979,8.475-3.039.086-3.744,0.356-5.471-.5l-0.5-4.486Zm-117.393,5.484c-0.06,5.925-.129,13.133,2.487,17.448,2.889,0.091,4.093.49,5.472,1.994v2l-1.492,1.5c-5.441,1.506-19.475,1.707-25.369-.5,0.626-5.257,3.755-3.221,5.969-6.481,3.108-4.869,2.7-9.82,1.99-16.452A93.793,93.793,0,0,1,276.569,106.915Zm121.372,7.976c1.271,0.933,1.309,1.48,1.99,2.991l-1,2.493-1.99-.5Q397.444,117.384,397.941,114.891Z" transform="translate(0 -0.719)"/>
</svg>
