<svg xmlns="http://www.w3.org/2000/svg" viewBox="0 0 36.63 22.9"><defs><style>.cls-1{fill:#546E7A;}</style></defs><title>icon_behance</title><g id="Layer_2" data-name="Layer 2"><g id="_06-SINGLE-WHITE" data-name="06-SINGLE-WHITE"><g id="Behance"><path class="cls-1" d="M15.07,10.35A5.42,5.42,0,0,0,16.8,9.08a4.93,4.93,0,0,0,1-3.29,5.63,5.63,0,0,0-1-3.41Q15.08.06,10.94,0H0V22.33H10.2a15.92,15.92,0,0,0,3.2-.3A6.28,6.28,0,0,0,16,20.91a6.2,6.2,0,0,0,1.6-1.76,6.45,6.45,0,0,0,1-3.56,5.86,5.86,0,0,0-.88-3.27A5.08,5.08,0,0,0,15.07,10.35ZM4.51,3.88H9.44a8.68,8.68,0,0,1,2.68.35,2,2,0,0,1,1.21,2.07,2.1,2.1,0,0,1-.92,2,4.61,4.61,0,0,1-2.4.55H4.51ZM12.3,18.06a5.43,5.43,0,0,1-2.29.39H4.51v-6h5.57a5.79,5.79,0,0,1,2.26.38,2.39,2.39,0,0,1,1.44,2.4A2.81,2.81,0,0,1,12.3,18.06Z"/><rect class="cls-1" x="23.41" y="1.04" width="9.7" height="2.78"/><path class="cls-1" d="M35.14,8.6a6.74,6.74,0,0,0-2.89-2.44,9.63,9.63,0,0,0-3.94-.78,8.15,8.15,0,0,0-6,2.29Q20,10,20,14.25q0,4.58,2.56,6.61a9.18,9.18,0,0,0,5.9,2,8.2,8.2,0,0,0,6.3-2.41,5.41,5.41,0,0,0,1.62-3H31.93a3.6,3.6,0,0,1-.9,1.14,3.74,3.74,0,0,1-2.43.76,4.49,4.49,0,0,1-2.41-.62,4,4,0,0,1-1.75-3.48h12.2A21,21,0,0,0,36.48,12,8,8,0,0,0,35.14,8.6ZM24.54,12.44a4.47,4.47,0,0,1,1.17-2.56,3.5,3.5,0,0,1,2.61-.94,3.89,3.89,0,0,1,2.6.89,3.61,3.61,0,0,1,1.17,2.61Z"/></g></g></g></svg>